<?xml version="1.0" encoding="utf-8"?>
<svg xmlns="http://www.w3.org/2000/svg" xmlns:xlink="http://www.w3.org/1999/xlink" width="600" height="400" viewBox="0 0 2400 1600">
<defs>
  <clipPath id="clip400">
    <rect x="0" y="0" width="2400" height="1600"/>
  </clipPath>
</defs>
<path clip-path="url(#clip400)" d="
M0 1600 L2400 1600 L2400 0 L0 0  Z
  " fill="#ffffff" fill-rule="evenodd" fill-opacity="1"/>
<defs>
  <clipPath id="clip401">
    <rect x="480" y="0" width="1681" height="1600"/>
  </clipPath>
</defs>
<path clip-path="url(#clip400)" d="
M205.121 1486.45 L2352.76 1486.45 L2352.76 47.2441 L205.121 47.2441  Z
  " fill="#ffffff" fill-rule="evenodd" fill-opacity="1"/>
<defs>
  <clipPath id="clip402">
    <rect x="205" y="47" width="2149" height="1440"/>
  </clipPath>
</defs>
<polyline clip-path="url(#clip402)" style="stroke:#000000; stroke-linecap:butt; stroke-linejoin:round; stroke-width:2; stroke-opacity:0.1; fill:none" points="
  473.575,1486.45 473.575,47.2441 
  "/>
<polyline clip-path="url(#clip402)" style="stroke:#000000; stroke-linecap:butt; stroke-linejoin:round; stroke-width:2; stroke-opacity:0.1; fill:none" points="
  742.03,1486.45 742.03,47.2441 
  "/>
<polyline clip-path="url(#clip402)" style="stroke:#000000; stroke-linecap:butt; stroke-linejoin:round; stroke-width:2; stroke-opacity:0.1; fill:none" points="
  1010.48,1486.45 1010.48,47.2441 
  "/>
<polyline clip-path="url(#clip402)" style="stroke:#000000; stroke-linecap:butt; stroke-linejoin:round; stroke-width:2; stroke-opacity:0.1; fill:none" points="
  1547.39,1486.45 1547.39,47.2441 
  "/>
<polyline clip-path="url(#clip402)" style="stroke:#000000; stroke-linecap:butt; stroke-linejoin:round; stroke-width:2; stroke-opacity:0.1; fill:none" points="
  1815.85,1486.45 1815.85,47.2441 
  "/>
<polyline clip-path="url(#clip402)" style="stroke:#000000; stroke-linecap:butt; stroke-linejoin:round; stroke-width:2; stroke-opacity:0.1; fill:none" points="
  2084.3,1486.45 2084.3,47.2441 
  "/>
<polyline clip-path="url(#clip400)" style="stroke:#000000; stroke-linecap:butt; stroke-linejoin:round; stroke-width:4; stroke-opacity:1; fill:none" points="
  205.121,1486.45 2352.76,1486.45 
  "/>
<polyline clip-path="url(#clip400)" style="stroke:#000000; stroke-linecap:butt; stroke-linejoin:round; stroke-width:4; stroke-opacity:1; fill:none" points="
  473.575,1486.45 473.575,1467.55 
  "/>
<polyline clip-path="url(#clip400)" style="stroke:#000000; stroke-linecap:butt; stroke-linejoin:round; stroke-width:4; stroke-opacity:1; fill:none" points="
  742.03,1486.45 742.03,1467.55 
  "/>
<polyline clip-path="url(#clip400)" style="stroke:#000000; stroke-linecap:butt; stroke-linejoin:round; stroke-width:4; stroke-opacity:1; fill:none" points="
  1010.48,1486.45 1010.48,1467.55 
  "/>
<polyline clip-path="url(#clip400)" style="stroke:#000000; stroke-linecap:butt; stroke-linejoin:round; stroke-width:4; stroke-opacity:1; fill:none" points="
  1547.39,1486.45 1547.39,1467.55 
  "/>
<polyline clip-path="url(#clip400)" style="stroke:#000000; stroke-linecap:butt; stroke-linejoin:round; stroke-width:4; stroke-opacity:1; fill:none" points="
  1815.85,1486.45 1815.85,1467.55 
  "/>
<polyline clip-path="url(#clip400)" style="stroke:#000000; stroke-linecap:butt; stroke-linejoin:round; stroke-width:4; stroke-opacity:1; fill:none" points="
  2084.3,1486.45 2084.3,1467.55 
  "/>
<path clip-path="url(#clip400)" d="M443.934 1514.29 L448.61 1514.29 L448.61 1528.89 L464.119 1514.29 L470.138 1514.29 L452.985 1530.4 L471.365 1548.85 L465.207 1548.85 L448.61 1532.2 L448.61 1548.85 L443.934 1548.85 L443.934 1514.29 Z" fill="#000000" fill-rule="evenodd" fill-opacity="1" /><path clip-path="url(#clip400)" d="M498.587 1543.92 L498.587 1534.63 L490.948 1534.63 L490.948 1530.79 L503.216 1530.79 L503.216 1545.63 Q500.508 1547.55 497.244 1548.55 Q493.98 1549.52 490.277 1549.52 Q482.175 1549.52 477.592 1544.8 Q473.031 1540.05 473.031 1531.6 Q473.031 1523.13 477.592 1518.41 Q482.175 1513.66 490.277 1513.66 Q493.656 1513.66 496.689 1514.5 Q499.744 1515.33 502.314 1516.95 L502.314 1521.93 Q499.721 1519.73 496.804 1518.62 Q493.888 1517.51 490.67 1517.51 Q484.328 1517.51 481.133 1521.05 Q477.962 1524.59 477.962 1531.6 Q477.962 1538.59 481.133 1542.13 Q484.328 1545.68 490.67 1545.68 Q493.147 1545.68 495.091 1545.26 Q497.036 1544.82 498.587 1543.92 Z" fill="#000000" fill-rule="evenodd" fill-opacity="1" /><path clip-path="url(#clip400)" d="M692.111 1543.92 L692.111 1534.63 L684.472 1534.63 L684.472 1530.79 L696.741 1530.79 L696.741 1545.63 Q694.032 1547.55 690.768 1548.55 Q687.505 1549.52 683.801 1549.52 Q675.699 1549.52 671.116 1544.8 Q666.556 1540.05 666.556 1531.6 Q666.556 1523.13 671.116 1518.41 Q675.699 1513.66 683.801 1513.66 Q687.18 1513.66 690.213 1514.5 Q693.268 1515.33 695.838 1516.95 L695.838 1521.93 Q693.245 1519.73 690.329 1518.62 Q687.412 1517.51 684.194 1517.51 Q677.852 1517.51 674.657 1521.05 Q671.486 1524.59 671.486 1531.6 Q671.486 1538.59 674.657 1542.13 Q677.852 1545.68 684.194 1545.68 Q686.671 1545.68 688.616 1545.26 Q690.56 1544.82 692.111 1543.92 Z" fill="#000000" fill-rule="evenodd" fill-opacity="1" /><path clip-path="url(#clip400)" d="M704.657 1538.62 L704.657 1522.92 L708.916 1522.92 L708.916 1538.45 Q708.916 1542.13 710.352 1543.99 Q711.787 1545.82 714.657 1545.82 Q718.106 1545.82 720.097 1543.62 Q722.111 1541.42 722.111 1537.62 L722.111 1522.92 L726.37 1522.92 L726.37 1548.85 L722.111 1548.85 L722.111 1544.87 Q720.56 1547.23 718.5 1548.38 Q716.463 1549.52 713.754 1549.52 Q709.287 1549.52 706.972 1546.74 Q704.657 1543.96 704.657 1538.62 M715.375 1522.3 L715.375 1522.3 Z" fill="#000000" fill-rule="evenodd" fill-opacity="1" /><path clip-path="url(#clip400)" d="M739.264 1544.96 L739.264 1558.71 L734.981 1558.71 L734.981 1522.92 L739.264 1522.92 L739.264 1526.86 Q740.606 1524.54 742.643 1523.43 Q744.703 1522.3 747.551 1522.3 Q752.273 1522.3 755.213 1526.05 Q758.175 1529.8 758.175 1535.91 Q758.175 1542.02 755.213 1545.77 Q752.273 1549.52 747.551 1549.52 Q744.703 1549.52 742.643 1548.41 Q740.606 1547.27 739.264 1544.96 M753.754 1535.91 Q753.754 1531.21 751.81 1528.55 Q749.888 1525.86 746.509 1525.86 Q743.129 1525.86 741.185 1528.55 Q739.264 1531.21 739.264 1535.91 Q739.264 1540.61 741.185 1543.29 Q743.129 1545.95 746.509 1545.95 Q749.888 1545.95 751.81 1543.29 Q753.754 1540.61 753.754 1535.91 Z" fill="#000000" fill-rule="evenodd" fill-opacity="1" /><path clip-path="url(#clip400)" d="M769.356 1544.96 L769.356 1558.71 L765.074 1558.71 L765.074 1522.92 L769.356 1522.92 L769.356 1526.86 Q770.699 1524.54 772.736 1523.43 Q774.796 1522.3 777.643 1522.3 Q782.365 1522.3 785.305 1526.05 Q788.268 1529.8 788.268 1535.91 Q788.268 1542.02 785.305 1545.77 Q782.365 1549.52 777.643 1549.52 Q774.796 1549.52 772.736 1548.41 Q770.699 1547.27 769.356 1544.96 M783.847 1535.91 Q783.847 1531.21 781.902 1528.55 Q779.981 1525.86 776.601 1525.86 Q773.222 1525.86 771.277 1528.55 Q769.356 1531.21 769.356 1535.91 Q769.356 1540.61 771.277 1543.29 Q773.222 1545.95 776.601 1545.95 Q779.981 1545.95 781.902 1543.29 Q783.847 1540.61 783.847 1535.91 Z" fill="#000000" fill-rule="evenodd" fill-opacity="1" /><path clip-path="url(#clip400)" d="M806.115 1551.26 Q804.309 1555.88 802.597 1557.3 Q800.884 1558.71 798.013 1558.71 L794.61 1558.71 L794.61 1555.14 L797.11 1555.14 Q798.87 1555.14 799.842 1554.31 Q800.814 1553.48 801.995 1550.38 L802.759 1548.43 L792.272 1522.92 L796.786 1522.92 L804.888 1543.2 L812.99 1522.92 L817.504 1522.92 L806.115 1551.26 Z" fill="#000000" fill-rule="evenodd" fill-opacity="1" /><path clip-path="url(#clip400)" d="M979.037 1514.29 L985.334 1514.29 L1000.66 1543.2 L1000.66 1514.29 L1005.19 1514.29 L1005.19 1548.85 L998.898 1548.85 L983.574 1519.94 L983.574 1548.85 L979.037 1548.85 L979.037 1514.29 Z" fill="#000000" fill-rule="evenodd" fill-opacity="1" /><path clip-path="url(#clip400)" d="M1014.5 1514.29 L1019.18 1514.29 L1019.18 1528.89 L1034.69 1514.29 L1040.7 1514.29 L1023.55 1530.4 L1041.93 1548.85 L1035.77 1548.85 L1019.18 1532.2 L1019.18 1548.85 L1014.5 1548.85 L1014.5 1514.29 Z" fill="#000000" fill-rule="evenodd" fill-opacity="1" /><path clip-path="url(#clip400)" d="M1517.75 1514.29 L1522.43 1514.29 L1522.43 1528.89 L1537.94 1514.29 L1543.96 1514.29 L1526.8 1530.4 L1545.18 1548.85 L1539.02 1548.85 L1522.43 1532.2 L1522.43 1548.85 L1517.75 1548.85 L1517.75 1514.29 Z" fill="#000000" fill-rule="evenodd" fill-opacity="1" /><path clip-path="url(#clip400)" d="M1572.4 1543.92 L1572.4 1534.63 L1564.77 1534.63 L1564.77 1530.79 L1577.03 1530.79 L1577.03 1545.63 Q1574.33 1547.55 1571.06 1548.55 Q1567.8 1549.52 1564.09 1549.52 Q1555.99 1549.52 1551.41 1544.8 Q1546.85 1540.05 1546.85 1531.6 Q1546.85 1523.13 1551.41 1518.41 Q1555.99 1513.66 1564.09 1513.66 Q1567.47 1513.66 1570.51 1514.5 Q1573.56 1515.33 1576.13 1516.95 L1576.13 1521.93 Q1573.54 1519.73 1570.62 1518.62 Q1567.71 1517.51 1564.49 1517.51 Q1558.15 1517.51 1554.95 1521.05 Q1551.78 1524.59 1551.78 1531.6 Q1551.78 1538.59 1554.95 1542.13 Q1558.15 1545.68 1564.49 1545.68 Q1566.96 1545.68 1568.91 1545.26 Q1570.85 1544.82 1572.4 1543.92 Z" fill="#000000" fill-rule="evenodd" fill-opacity="1" /><path clip-path="url(#clip400)" d="M1736 1514.29 L1740.67 1514.29 L1740.67 1528.89 L1756.18 1514.29 L1762.2 1514.29 L1745.05 1530.4 L1763.43 1548.85 L1757.27 1548.85 L1740.67 1532.2 L1740.67 1548.85 L1736 1548.85 L1736 1514.29 Z" fill="#000000" fill-rule="evenodd" fill-opacity="1" /><path clip-path="url(#clip400)" d="M1766.9 1522.92 L1771.16 1522.92 L1771.16 1548.85 L1766.9 1548.85 L1766.9 1522.92 M1766.9 1512.83 L1771.16 1512.83 L1771.16 1518.22 L1766.9 1518.22 L1766.9 1512.83 Z" fill="#000000" fill-rule="evenodd" fill-opacity="1" /><path clip-path="url(#clip400)" d="M1780.07 1512.83 L1784.33 1512.83 L1784.33 1548.85 L1780.07 1548.85 L1780.07 1512.83 Z" fill="#000000" fill-rule="evenodd" fill-opacity="1" /><path clip-path="url(#clip400)" d="M1793.24 1512.83 L1797.5 1512.83 L1797.5 1548.85 L1793.24 1548.85 L1793.24 1512.83 Z" fill="#000000" fill-rule="evenodd" fill-opacity="1" /><path clip-path="url(#clip400)" d="M1806.41 1522.92 L1810.67 1522.92 L1810.67 1548.85 L1806.41 1548.85 L1806.41 1522.92 M1806.41 1512.83 L1810.67 1512.83 L1810.67 1518.22 L1806.41 1518.22 L1806.41 1512.83 Z" fill="#000000" fill-rule="evenodd" fill-opacity="1" /><path clip-path="url(#clip400)" d="M1832.71 1512.83 L1832.71 1516.37 L1828.64 1516.37 Q1826.34 1516.37 1825.44 1517.3 Q1824.56 1518.22 1824.56 1520.63 L1824.56 1522.92 L1831.58 1522.92 L1831.58 1526.23 L1824.56 1526.23 L1824.56 1548.85 L1820.28 1548.85 L1820.28 1526.23 L1816.21 1526.23 L1816.21 1522.92 L1820.28 1522.92 L1820.28 1521.12 Q1820.28 1516.79 1822.29 1514.82 Q1824.31 1512.83 1828.68 1512.83 L1832.71 1512.83 Z" fill="#000000" fill-rule="evenodd" fill-opacity="1" /><path clip-path="url(#clip400)" d="M1836.28 1522.92 L1840.53 1522.92 L1840.53 1548.85 L1836.28 1548.85 L1836.28 1522.92 M1836.28 1512.83 L1840.53 1512.83 L1840.53 1518.22 L1836.28 1518.22 L1836.28 1512.83 Z" fill="#000000" fill-rule="evenodd" fill-opacity="1" /><path clip-path="url(#clip400)" d="M1865.97 1523.69 L1865.97 1527.71 Q1864.17 1526.79 1862.22 1526.32 Q1860.28 1525.86 1858.2 1525.86 Q1855.03 1525.86 1853.43 1526.83 Q1851.85 1527.81 1851.85 1529.75 Q1851.85 1531.23 1852.99 1532.09 Q1854.12 1532.92 1857.55 1533.69 L1859.01 1534.01 Q1863.54 1534.98 1865.44 1536.76 Q1867.36 1538.52 1867.36 1541.7 Q1867.36 1545.31 1864.49 1547.41 Q1861.65 1549.52 1856.65 1549.52 Q1854.56 1549.52 1852.29 1549.1 Q1850.05 1548.71 1847.55 1547.9 L1847.55 1543.5 Q1849.91 1544.73 1852.2 1545.35 Q1854.49 1545.95 1856.74 1545.95 Q1859.75 1545.95 1861.37 1544.94 Q1862.99 1543.89 1862.99 1542.02 Q1862.99 1540.28 1861.81 1539.36 Q1860.65 1538.43 1856.69 1537.57 L1855.21 1537.23 Q1851.25 1536.39 1849.49 1534.68 Q1847.73 1532.95 1847.73 1529.94 Q1847.73 1526.28 1850.33 1524.29 Q1852.92 1522.3 1857.69 1522.3 Q1860.05 1522.3 1862.13 1522.64 Q1864.21 1522.99 1865.97 1523.69 Z" fill="#000000" fill-rule="evenodd" fill-opacity="1" /><path clip-path="url(#clip400)" d="M1895.7 1533.2 L1895.7 1548.85 L1891.44 1548.85 L1891.44 1533.34 Q1891.44 1529.66 1890 1527.83 Q1888.57 1526 1885.7 1526 Q1882.25 1526 1880.26 1528.2 Q1878.27 1530.4 1878.27 1534.2 L1878.27 1548.85 L1873.98 1548.85 L1873.98 1512.83 L1878.27 1512.83 L1878.27 1526.95 Q1879.79 1524.61 1881.85 1523.45 Q1883.94 1522.3 1886.65 1522.3 Q1891.11 1522.3 1893.4 1525.07 Q1895.7 1527.83 1895.7 1533.2 Z" fill="#000000" fill-rule="evenodd" fill-opacity="1" /><path clip-path="url(#clip400)" d="M2052.47 1514.29 L2058.77 1514.29 L2074.09 1543.2 L2074.09 1514.29 L2078.63 1514.29 L2078.63 1548.85 L2072.33 1548.85 L2057.01 1519.94 L2057.01 1548.85 L2052.47 1548.85 L2052.47 1514.29 Z" fill="#000000" fill-rule="evenodd" fill-opacity="1" /><path clip-path="url(#clip400)" d="M2111.5 1543.92 L2111.5 1534.63 L2103.86 1534.63 L2103.86 1530.79 L2116.13 1530.79 L2116.13 1545.63 Q2113.42 1547.55 2110.16 1548.55 Q2106.89 1549.52 2103.19 1549.52 Q2095.09 1549.52 2090.51 1544.8 Q2085.95 1540.05 2085.95 1531.6 Q2085.95 1523.13 2090.51 1518.41 Q2095.09 1513.66 2103.19 1513.66 Q2106.57 1513.66 2109.6 1514.5 Q2112.66 1515.33 2115.23 1516.95 L2115.23 1521.93 Q2112.63 1519.73 2109.72 1518.62 Q2106.8 1517.51 2103.58 1517.51 Q2097.24 1517.51 2094.05 1521.05 Q2090.88 1524.59 2090.88 1531.6 Q2090.88 1538.59 2094.05 1542.13 Q2097.24 1545.68 2103.58 1545.68 Q2106.06 1545.68 2108.01 1545.26 Q2109.95 1544.82 2111.5 1543.92 Z" fill="#000000" fill-rule="evenodd" fill-opacity="1" /><polyline clip-path="url(#clip402)" style="stroke:#000000; stroke-linecap:butt; stroke-linejoin:round; stroke-width:2; stroke-opacity:0.1; fill:none" points="
  205.121,1467.51 2352.76,1467.51 
  "/>
<polyline clip-path="url(#clip402)" style="stroke:#000000; stroke-linecap:butt; stroke-linejoin:round; stroke-width:2; stroke-opacity:0.1; fill:none" points="
  205.121,1151.9 2352.76,1151.9 
  "/>
<polyline clip-path="url(#clip402)" style="stroke:#000000; stroke-linecap:butt; stroke-linejoin:round; stroke-width:2; stroke-opacity:0.1; fill:none" points="
  205.121,836.281 2352.76,836.281 
  "/>
<polyline clip-path="url(#clip402)" style="stroke:#000000; stroke-linecap:butt; stroke-linejoin:round; stroke-width:2; stroke-opacity:0.1; fill:none" points="
  205.121,520.666 2352.76,520.666 
  "/>
<polyline clip-path="url(#clip402)" style="stroke:#000000; stroke-linecap:butt; stroke-linejoin:round; stroke-width:2; stroke-opacity:0.1; fill:none" points="
  205.121,205.052 2352.76,205.052 
  "/>
<polyline clip-path="url(#clip400)" style="stroke:#000000; stroke-linecap:butt; stroke-linejoin:round; stroke-width:4; stroke-opacity:1; fill:none" points="
  205.121,1486.45 205.121,47.2441 
  "/>
<polyline clip-path="url(#clip400)" style="stroke:#000000; stroke-linecap:butt; stroke-linejoin:round; stroke-width:4; stroke-opacity:1; fill:none" points="
  205.121,1467.51 224.019,1467.51 
  "/>
<polyline clip-path="url(#clip400)" style="stroke:#000000; stroke-linecap:butt; stroke-linejoin:round; stroke-width:4; stroke-opacity:1; fill:none" points="
  205.121,1151.9 224.019,1151.9 
  "/>
<polyline clip-path="url(#clip400)" style="stroke:#000000; stroke-linecap:butt; stroke-linejoin:round; stroke-width:4; stroke-opacity:1; fill:none" points="
  205.121,836.281 224.019,836.281 
  "/>
<polyline clip-path="url(#clip400)" style="stroke:#000000; stroke-linecap:butt; stroke-linejoin:round; stroke-width:4; stroke-opacity:1; fill:none" points="
  205.121,520.666 224.019,520.666 
  "/>
<polyline clip-path="url(#clip400)" style="stroke:#000000; stroke-linecap:butt; stroke-linejoin:round; stroke-width:4; stroke-opacity:1; fill:none" points="
  205.121,205.052 224.019,205.052 
  "/>
<path clip-path="url(#clip400)" d="M157.177 1453.31 Q153.566 1453.31 151.737 1456.87 Q149.931 1460.42 149.931 1467.55 Q149.931 1474.65 151.737 1478.22 Q153.566 1481.76 157.177 1481.76 Q160.811 1481.76 162.616 1478.22 Q164.445 1474.65 164.445 1467.55 Q164.445 1460.42 162.616 1456.87 Q160.811 1453.31 157.177 1453.31 M157.177 1449.61 Q162.987 1449.61 166.042 1454.21 Q169.121 1458.8 169.121 1467.55 Q169.121 1476.27 166.042 1480.88 Q162.987 1485.46 157.177 1485.46 Q151.366 1485.46 148.288 1480.88 Q145.232 1476.27 145.232 1467.55 Q145.232 1458.8 148.288 1454.21 Q151.366 1449.61 157.177 1449.61 Z" fill="#000000" fill-rule="evenodd" fill-opacity="1" /><path clip-path="url(#clip400)" d="M121.043 1165.24 L137.362 1165.24 L137.362 1169.18 L115.418 1169.18 L115.418 1165.24 Q118.08 1162.49 122.663 1157.86 Q127.269 1153.2 128.45 1151.86 Q130.695 1149.34 131.575 1147.6 Q132.478 1145.84 132.478 1144.15 Q132.478 1141.4 130.533 1139.66 Q128.612 1137.93 125.51 1137.93 Q123.311 1137.93 120.857 1138.69 Q118.427 1139.45 115.649 1141 L115.649 1136.28 Q118.473 1135.15 120.927 1134.57 Q123.38 1133.99 125.418 1133.99 Q130.788 1133.99 133.982 1136.68 Q137.177 1139.36 137.177 1143.85 Q137.177 1145.98 136.367 1147.9 Q135.579 1149.8 133.473 1152.39 Q132.894 1153.07 129.792 1156.28 Q126.691 1159.48 121.043 1165.24 Z" fill="#000000" fill-rule="evenodd" fill-opacity="1" /><path clip-path="url(#clip400)" d="M157.177 1137.69 Q153.566 1137.69 151.737 1141.26 Q149.931 1144.8 149.931 1151.93 Q149.931 1159.04 151.737 1162.6 Q153.566 1166.14 157.177 1166.14 Q160.811 1166.14 162.616 1162.6 Q164.445 1159.04 164.445 1151.93 Q164.445 1144.8 162.616 1141.26 Q160.811 1137.69 157.177 1137.69 M157.177 1133.99 Q162.987 1133.99 166.042 1138.6 Q169.121 1143.18 169.121 1151.93 Q169.121 1160.66 166.042 1165.26 Q162.987 1169.85 157.177 1169.85 Q151.366 1169.85 148.288 1165.26 Q145.232 1160.66 145.232 1151.93 Q145.232 1143.18 148.288 1138.6 Q151.366 1133.99 157.177 1133.99 Z" fill="#000000" fill-rule="evenodd" fill-opacity="1" /><path clip-path="url(#clip400)" d="M129.862 823.075 L118.056 841.524 L129.862 841.524 L129.862 823.075 M128.635 819.001 L134.515 819.001 L134.515 841.524 L139.445 841.524 L139.445 845.413 L134.515 845.413 L134.515 853.561 L129.862 853.561 L129.862 845.413 L114.26 845.413 L114.26 840.899 L128.635 819.001 Z" fill="#000000" fill-rule="evenodd" fill-opacity="1" /><path clip-path="url(#clip400)" d="M157.177 822.08 Q153.566 822.08 151.737 825.645 Q149.931 829.186 149.931 836.316 Q149.931 843.422 151.737 846.987 Q153.566 850.529 157.177 850.529 Q160.811 850.529 162.616 846.987 Q164.445 843.422 164.445 836.316 Q164.445 829.186 162.616 825.645 Q160.811 822.08 157.177 822.08 M157.177 818.376 Q162.987 818.376 166.042 822.983 Q169.121 827.566 169.121 836.316 Q169.121 845.043 166.042 849.649 Q162.987 854.233 157.177 854.233 Q151.366 854.233 148.288 849.649 Q145.232 845.043 145.232 836.316 Q145.232 827.566 148.288 822.983 Q151.366 818.376 157.177 818.376 Z" fill="#000000" fill-rule="evenodd" fill-opacity="1" /><path clip-path="url(#clip400)" d="M127.593 518.803 Q124.445 518.803 122.593 520.956 Q120.765 523.109 120.765 526.858 Q120.765 530.585 122.593 532.761 Q124.445 534.914 127.593 534.914 Q130.742 534.914 132.57 532.761 Q134.422 530.585 134.422 526.858 Q134.422 523.109 132.57 520.956 Q130.742 518.803 127.593 518.803 M136.876 504.15 L136.876 508.41 Q135.117 507.576 133.311 507.136 Q131.529 506.697 129.769 506.697 Q125.14 506.697 122.686 509.822 Q120.255 512.947 119.908 519.266 Q121.274 517.252 123.334 516.187 Q125.394 515.099 127.871 515.099 Q133.08 515.099 136.089 518.271 Q139.121 521.419 139.121 526.858 Q139.121 532.183 135.973 535.4 Q132.825 538.618 127.593 538.618 Q121.598 538.618 118.427 534.034 Q115.256 529.428 115.256 520.701 Q115.256 512.507 119.144 507.646 Q123.033 502.761 129.584 502.761 Q131.343 502.761 133.126 503.109 Q134.931 503.456 136.876 504.15 Z" fill="#000000" fill-rule="evenodd" fill-opacity="1" /><path clip-path="url(#clip400)" d="M157.177 506.465 Q153.566 506.465 151.737 510.03 Q149.931 513.572 149.931 520.701 Q149.931 527.808 151.737 531.372 Q153.566 534.914 157.177 534.914 Q160.811 534.914 162.616 531.372 Q164.445 527.808 164.445 520.701 Q164.445 513.572 162.616 510.03 Q160.811 506.465 157.177 506.465 M157.177 502.761 Q162.987 502.761 166.042 507.368 Q169.121 511.951 169.121 520.701 Q169.121 529.428 166.042 534.034 Q162.987 538.618 157.177 538.618 Q151.366 538.618 148.288 534.034 Q145.232 529.428 145.232 520.701 Q145.232 511.951 148.288 507.368 Q151.366 502.761 157.177 502.761 Z" fill="#000000" fill-rule="evenodd" fill-opacity="1" /><path clip-path="url(#clip400)" d="M127.015 205.92 Q123.681 205.92 121.76 207.702 Q119.862 209.484 119.862 212.609 Q119.862 215.734 121.76 217.517 Q123.681 219.299 127.015 219.299 Q130.348 219.299 132.269 217.517 Q134.191 215.711 134.191 212.609 Q134.191 209.484 132.269 207.702 Q130.371 205.92 127.015 205.92 M122.339 203.929 Q119.33 203.188 117.64 201.128 Q115.973 199.068 115.973 196.105 Q115.973 191.961 118.913 189.554 Q121.876 187.147 127.015 187.147 Q132.177 187.147 135.117 189.554 Q138.056 191.961 138.056 196.105 Q138.056 199.068 136.367 201.128 Q134.7 203.188 131.714 203.929 Q135.093 204.716 136.968 207.008 Q138.867 209.299 138.867 212.609 Q138.867 217.632 135.788 220.318 Q132.732 223.003 127.015 223.003 Q121.297 223.003 118.218 220.318 Q115.163 217.632 115.163 212.609 Q115.163 209.299 117.061 207.008 Q118.959 204.716 122.339 203.929 M120.626 196.545 Q120.626 199.23 122.293 200.734 Q123.982 202.239 127.015 202.239 Q130.024 202.239 131.714 200.734 Q133.427 199.23 133.427 196.545 Q133.427 193.859 131.714 192.355 Q130.024 190.85 127.015 190.85 Q123.982 190.85 122.293 192.355 Q120.626 193.859 120.626 196.545 Z" fill="#000000" fill-rule="evenodd" fill-opacity="1" /><path clip-path="url(#clip400)" d="M157.177 190.85 Q153.566 190.85 151.737 194.415 Q149.931 197.957 149.931 205.086 Q149.931 212.193 151.737 215.757 Q153.566 219.299 157.177 219.299 Q160.811 219.299 162.616 215.757 Q164.445 212.193 164.445 205.086 Q164.445 197.957 162.616 194.415 Q160.811 190.85 157.177 190.85 M157.177 187.147 Q162.987 187.147 166.042 191.753 Q169.121 196.336 169.121 205.086 Q169.121 213.813 166.042 218.42 Q162.987 223.003 157.177 223.003 Q151.366 223.003 148.288 218.42 Q145.232 213.813 145.232 205.086 Q145.232 196.336 148.288 191.753 Q151.366 187.147 157.177 187.147 Z" fill="#000000" fill-rule="evenodd" fill-opacity="1" /><path clip-path="url(#clip400)" d="M41.7242 930.508 Q42.4244 928.439 44.7161 926.498 Q47.0077 924.525 51.0181 922.551 L64.0042 916.026 L64.0042 922.933 L51.8138 929.012 Q47.0395 931.368 45.48 933.596 Q43.9204 935.792 43.9204 939.611 L43.9204 946.614 L64.0042 946.614 L64.0042 953.043 L16.4842 953.043 L16.4842 938.529 Q16.4842 930.381 19.8898 926.371 Q23.2955 922.36 30.1704 922.36 Q34.6582 922.36 37.6183 924.461 Q40.5784 926.53 41.7242 930.508 M21.7677 946.614 L38.6368 946.614 L38.6368 938.529 Q38.6368 933.882 36.5043 931.527 Q34.34 929.14 30.1704 929.14 Q26.0009 929.14 23.9002 931.527 Q21.7677 933.882 21.7677 938.529 L21.7677 946.614 Z" fill="#000000" fill-rule="evenodd" fill-opacity="1" /><path clip-path="url(#clip400)" d="M44.7161 880.442 L47.5806 880.442 L47.5806 907.369 Q53.6281 906.987 56.8109 903.741 Q59.9619 900.462 59.9619 894.638 Q59.9619 891.264 59.1344 888.113 Q58.3069 884.93 56.6518 881.811 L62.1899 881.811 Q63.5267 884.962 64.227 888.272 Q64.9272 891.582 64.9272 894.988 Q64.9272 903.518 59.9619 908.515 Q54.9967 913.48 46.5303 913.48 Q37.7774 913.48 32.6531 908.769 Q27.4968 904.027 27.4968 896.006 Q27.4968 888.813 32.1438 884.643 Q36.7589 880.442 44.7161 880.442 M42.9973 886.298 Q38.1912 886.362 35.3266 889.004 Q32.4621 891.614 32.4621 895.943 Q32.4621 900.844 35.2312 903.804 Q38.0002 906.732 43.0292 907.178 L42.9973 886.298 Z" fill="#000000" fill-rule="evenodd" fill-opacity="1" /><path clip-path="url(#clip400)" d="M29.7248 845.176 L35.1993 845.176 Q33.8307 847.659 33.1623 850.173 Q32.4621 852.656 32.4621 855.202 Q32.4621 860.899 36.0905 864.05 Q39.6872 867.201 46.212 867.201 Q52.7369 867.201 56.3653 864.05 Q59.9619 860.899 59.9619 855.202 Q59.9619 852.656 59.2935 850.173 Q58.5933 847.659 57.2247 845.176 L62.6355 845.176 Q63.7814 847.627 64.3543 850.269 Q64.9272 852.879 64.9272 855.839 Q64.9272 863.891 59.8664 868.634 Q54.8057 873.376 46.212 873.376 Q37.491 873.376 32.4939 868.602 Q27.4968 863.796 27.4968 855.457 Q27.4968 852.751 28.0697 850.173 Q28.6108 847.595 29.7248 845.176 Z" fill="#000000" fill-rule="evenodd" fill-opacity="1" /><path clip-path="url(#clip400)" d="M33.8307 814.334 Q33.2578 815.321 33.0032 816.498 Q32.7167 817.644 32.7167 819.045 Q32.7167 824.01 35.9632 826.684 Q39.1779 829.325 45.2253 829.325 L64.0042 829.325 L64.0042 835.214 L28.3562 835.214 L28.3562 829.325 L33.8944 829.325 Q30.6479 827.479 29.0883 824.519 Q27.4968 821.559 27.4968 817.326 Q27.4968 816.721 27.5923 815.989 Q27.656 815.257 27.8151 814.366 L33.8307 814.334 Z" fill="#000000" fill-rule="evenodd" fill-opacity="1" /><path clip-path="url(#clip400)" d="M49.9359 808.796 L28.3562 808.796 L28.3562 802.94 L49.7131 802.94 Q54.7739 802.94 57.3202 800.966 Q59.8346 798.993 59.8346 795.046 Q59.8346 790.304 56.8109 787.566 Q53.7872 784.797 48.5673 784.797 L28.3562 784.797 L28.3562 778.941 L64.0042 778.941 L64.0042 784.797 L58.5296 784.797 Q61.7762 786.93 63.3676 789.763 Q64.9272 792.563 64.9272 796.287 Q64.9272 802.43 61.1078 805.613 Q57.2883 808.796 49.9359 808.796 M27.4968 794.059 L27.4968 794.059 Z" fill="#000000" fill-rule="evenodd" fill-opacity="1" /><path clip-path="url(#clip400)" d="M28.3562 766.878 L28.3562 761.021 L64.0042 761.021 L64.0042 766.878 L28.3562 766.878 M14.479 766.878 L14.479 761.021 L21.895 761.021 L21.895 766.878 L14.479 766.878 Z" fill="#000000" fill-rule="evenodd" fill-opacity="1" /><path clip-path="url(#clip400)" d="M18.2347 742.975 L28.3562 742.975 L28.3562 730.912 L32.9077 730.912 L32.9077 742.975 L52.2594 742.975 Q56.6199 742.975 57.8613 741.797 Q59.1026 740.587 59.1026 736.927 L59.1026 730.912 L64.0042 730.912 L64.0042 736.927 Q64.0042 743.707 61.4897 746.285 Q58.9434 748.863 52.2594 748.863 L32.9077 748.863 L32.9077 753.16 L28.3562 753.16 L28.3562 748.863 L18.2347 748.863 L18.2347 742.975 Z" fill="#000000" fill-rule="evenodd" fill-opacity="1" /><path clip-path="url(#clip400)" d="M29.4065 700.483 L34.9447 700.483 Q33.6716 702.966 33.035 705.64 Q32.3984 708.313 32.3984 711.178 Q32.3984 715.538 33.7352 717.735 Q35.072 719.899 37.7456 719.899 Q39.7826 719.899 40.9603 718.339 Q42.1061 716.78 43.1565 712.069 L43.6021 710.064 Q44.9389 703.825 47.3897 701.216 Q49.8086 698.574 54.1691 698.574 Q59.1344 698.574 62.0308 702.521 Q64.9272 706.435 64.9272 713.31 Q64.9272 716.175 64.3543 719.294 Q63.8132 722.382 62.6992 725.819 L56.6518 725.819 Q58.3387 722.572 59.198 719.421 Q60.0256 716.27 60.0256 713.183 Q60.0256 709.045 58.6251 706.817 Q57.1929 704.589 54.6147 704.589 Q52.2276 704.589 50.9545 706.213 Q49.6813 707.804 48.5037 713.247 L48.0262 715.284 Q46.8804 720.726 44.5251 723.145 Q42.138 725.564 38.0002 725.564 Q32.9713 725.564 30.2341 722 Q27.4968 718.435 27.4968 711.878 Q27.4968 708.632 27.9743 705.767 Q28.4517 702.902 29.4065 700.483 Z" fill="#000000" fill-rule="evenodd" fill-opacity="1" /><path clip-path="url(#clip400)" d="M14.5426 654.459 Q21.8632 658.724 29.0246 660.793 Q36.186 662.862 43.5384 662.862 Q50.8908 662.862 58.1159 660.793 Q65.3091 658.693 72.5979 654.459 L72.5979 659.552 Q65.1182 664.326 57.8931 666.713 Q50.668 669.069 43.5384 669.069 Q36.4406 669.069 29.2474 666.713 Q22.0542 664.358 14.5426 659.552 L14.5426 654.459 Z" fill="#000000" fill-rule="evenodd" fill-opacity="1" /><path clip-path="url(#clip400)" d="M16.4842 642.842 L16.4842 634.185 L56.238 613.114 L16.4842 613.114 L16.4842 606.876 L64.0042 606.876 L64.0042 615.533 L24.2503 636.604 L64.0042 636.604 L64.0042 642.842 L16.4842 642.842 Z" fill="#000000" fill-rule="evenodd" fill-opacity="1" /><path clip-path="url(#clip400)" d="M14.5426 595.258 L14.5426 590.166 Q22.0542 585.392 29.2474 583.036 Q36.4406 580.649 43.5384 580.649 Q50.668 580.649 57.8931 583.036 Q65.1182 585.392 72.5979 590.166 L72.5979 595.258 Q65.3091 591.025 58.1159 588.956 Q50.8908 586.856 43.5384 586.856 Q36.186 586.856 29.0246 588.956 Q21.8632 591.025 14.5426 595.258 Z" fill="#000000" fill-rule="evenodd" fill-opacity="1" /><polyline clip-path="url(#clip402)" style="stroke:#000000; stroke-linecap:butt; stroke-linejoin:round; stroke-width:6; stroke-opacity:1; fill:none" points="
  473.575,1356.02 473.575,223.436 
  "/>
<polyline clip-path="url(#clip402)" style="stroke:#000000; stroke-linecap:butt; stroke-linejoin:round; stroke-width:6; stroke-opacity:1; fill:none" points="
  1010.48,1367.35 1010.48,185.515 
  "/>
<polyline clip-path="url(#clip402)" style="stroke:#000000; stroke-linecap:butt; stroke-linejoin:round; stroke-width:6; stroke-opacity:1; fill:none" points="
  1547.39,1434.81 1547.39,867.716 
  "/>
<polyline clip-path="url(#clip402)" style="stroke:#000000; stroke-linecap:butt; stroke-linejoin:round; stroke-width:6; stroke-opacity:1; fill:none" points="
  2084.3,1446.43 2084.3,1015.68 
  "/>
<polyline clip-path="url(#clip402)" style="stroke:#808080; stroke-linecap:butt; stroke-linejoin:round; stroke-width:16; stroke-opacity:1; fill:none" points="
  473.575,1291.21 473.575,802.148 
  "/>
<polyline clip-path="url(#clip402)" style="stroke:#808080; stroke-linecap:butt; stroke-linejoin:round; stroke-width:16; stroke-opacity:1; fill:none" points="
  1010.48,1302.82 1010.48,810.811 
  "/>
<polyline clip-path="url(#clip402)" style="stroke:#808080; stroke-linecap:butt; stroke-linejoin:round; stroke-width:16; stroke-opacity:1; fill:none" points="
  1547.39,1394.18 1547.39,1169.44 
  "/>
<polyline clip-path="url(#clip402)" style="stroke:#808080; stroke-linecap:butt; stroke-linejoin:round; stroke-width:16; stroke-opacity:1; fill:none" points="
  2084.3,1413.11 2084.3,1248.05 
  "/>
<circle clip-path="url(#clip402)" cx="473.575" cy="1006.74" r="28.8" fill="#87cefa" fill-rule="evenodd" fill-opacity="1" stroke="#000000" stroke-opacity="1" stroke-width="3.2"/>
<circle clip-path="url(#clip402)" cx="1010.48" cy="993.836" r="28.8" fill="#ff0000" fill-rule="evenodd" fill-opacity="1" stroke="#000000" stroke-opacity="1" stroke-width="3.2"/>
<circle clip-path="url(#clip402)" cx="1547.39" cy="1257.22" r="28.8" fill="#87cefa" fill-rule="evenodd" fill-opacity="1" stroke="#000000" stroke-opacity="1" stroke-width="3.2"/>
<circle clip-path="url(#clip402)" cx="2084.3" cy="1312.35" r="28.8" fill="#ff0000" fill-rule="evenodd" fill-opacity="1" stroke="#000000" stroke-opacity="1" stroke-width="3.2"/>
<circle clip-path="url(#clip402)" cx="412.881" cy="520.666" r="7.2" fill="#808080" fill-rule="evenodd" fill-opacity="1" stroke="#000000" stroke-opacity="1" stroke-width="3.2"/>
<circle clip-path="url(#clip402)" cx="1040.57" cy="978.308" r="7.2" fill="#808080" fill-rule="evenodd" fill-opacity="1" stroke="#000000" stroke-opacity="1" stroke-width="3.2"/>
<circle clip-path="url(#clip402)" cx="451.345" cy="362.859" r="7.2" fill="#808080" fill-rule="evenodd" fill-opacity="1" stroke="#000000" stroke-opacity="1" stroke-width="3.2"/>
<circle clip-path="url(#clip402)" cx="488.105" cy="710.035" r="7.2" fill="#808080" fill-rule="evenodd" fill-opacity="1" stroke="#000000" stroke-opacity="1" stroke-width="3.2"/>
<circle clip-path="url(#clip402)" cx="1128.3" cy="268.174" r="7.2" fill="#808080" fill-rule="evenodd" fill-opacity="1" stroke="#000000" stroke-opacity="1" stroke-width="3.2"/>
<circle clip-path="url(#clip402)" cx="940.665" cy="1467.51" r="7.2" fill="#808080" fill-rule="evenodd" fill-opacity="1" stroke="#000000" stroke-opacity="1" stroke-width="3.2"/>
<circle clip-path="url(#clip402)" cx="376.745" cy="1467.51" r="7.2" fill="#808080" fill-rule="evenodd" fill-opacity="1" stroke="#000000" stroke-opacity="1" stroke-width="3.2"/>
<circle clip-path="url(#clip402)" cx="1512.23" cy="1262.36" r="7.2" fill="#808080" fill-rule="evenodd" fill-opacity="1" stroke="#000000" stroke-opacity="1" stroke-width="3.2"/>
<circle clip-path="url(#clip402)" cx="1492.35" cy="1057.21" r="7.2" fill="#808080" fill-rule="evenodd" fill-opacity="1" stroke="#000000" stroke-opacity="1" stroke-width="3.2"/>
<circle clip-path="url(#clip402)" cx="1643.08" cy="836.281" r="7.2" fill="#808080" fill-rule="evenodd" fill-opacity="1" stroke="#000000" stroke-opacity="1" stroke-width="3.2"/>
<circle clip-path="url(#clip402)" cx="2126.1" cy="1388.61" r="7.2" fill="#808080" fill-rule="evenodd" fill-opacity="1" stroke="#000000" stroke-opacity="1" stroke-width="3.2"/>
<circle clip-path="url(#clip402)" cx="2059.33" cy="1357.05" r="7.2" fill="#808080" fill-rule="evenodd" fill-opacity="1" stroke="#000000" stroke-opacity="1" stroke-width="3.2"/>
<circle clip-path="url(#clip402)" cx="2115.41" cy="583.789" r="7.2" fill="#808080" fill-rule="evenodd" fill-opacity="1" stroke="#000000" stroke-opacity="1" stroke-width="3.2"/>
<circle clip-path="url(#clip402)" cx="1635.36" cy="1467.51" r="7.2" fill="#808080" fill-rule="evenodd" fill-opacity="1" stroke="#000000" stroke-opacity="1" stroke-width="3.2"/>
<circle clip-path="url(#clip402)" cx="2071.87" cy="1467.51" r="7.2" fill="#808080" fill-rule="evenodd" fill-opacity="1" stroke="#000000" stroke-opacity="1" stroke-width="3.2"/>
<polyline clip-path="url(#clip402)" style="stroke:#000000; stroke-linecap:butt; stroke-linejoin:round; stroke-width:8; stroke-opacity:1; fill:none" points="
  1278.94,1467.51 1278.94,47.2441 
  "/>
</svg>
