<?xml version="1.0" encoding="UTF-8" standalone="no"?>
<svg
   width="600"
   height="400"
   viewBox="0 0 2400 1600"
   version="1.1"
   id="svg209"
   sodipodi:docname="Recruitment.svg"
   inkscape:version="1.1.2 (0a00cf5339, 2022-02-04)"
   xmlns:inkscape="http://www.inkscape.org/namespaces/inkscape"
   xmlns:sodipodi="http://sodipodi.sourceforge.net/DTD/sodipodi-0.dtd"
   xmlns="http://www.w3.org/2000/svg"
   xmlns:svg="http://www.w3.org/2000/svg">
  <sodipodi:namedview
     id="namedview211"
     pagecolor="#ffffff"
     bordercolor="#666666"
     borderopacity="1.0"
     inkscape:pageshadow="2"
     inkscape:pageopacity="0.0"
     inkscape:pagecheckerboard="0"
     showgrid="false"
     fit-margin-top="0"
     fit-margin-left="0"
     fit-margin-right="0"
     fit-margin-bottom="0"
     inkscape:zoom="0.9775"
     inkscape:cx="391.81586"
     inkscape:cy="295.14066"
     inkscape:window-width="1866"
     inkscape:window-height="1016"
     inkscape:window-x="0"
     inkscape:window-y="0"
     inkscape:window-maximized="1"
     inkscape:current-layer="svg209" />
  <defs
     id="defs5">
    <clipPath
       id="clip440">
      <rect
         x="0"
         y="0"
         width="2400"
         height="1600"
         id="rect2" />
    </clipPath>
  </defs>
  <path
     clip-path="url(#clip440)"
     d="M 0,1600 H 2400 V 0 H 0 Z"
     fill="#ffffff"
     fill-rule="evenodd"
     fill-opacity="1"
     id="path7" />
  <defs
     id="defs12">
    <clipPath
       id="clip441">
      <rect
         x="480"
         y="0"
         width="1681"
         height="1600"
         id="rect9" />
    </clipPath>
  </defs>
  <path
     clip-path="url(#clip440)"
     d="M 205.121,1486.45 H 2352.76 V 47.2441 H 205.121 Z"
     fill="#ffffff"
     fill-rule="evenodd"
     fill-opacity="1"
     id="path14" />
  <defs
     id="defs19">
    <clipPath
       id="clip442">
      <rect
         x="205"
         y="47"
         width="2149"
         height="1440"
         id="rect16" />
    </clipPath>
  </defs>
  <polyline
     clip-path="url(#clip442)"
     style="fill:none;stroke:#000000;stroke-width:2;stroke-linecap:butt;stroke-linejoin:round;stroke-opacity:0.1"
     points="   473.575,1486.45 473.575,47.2441    "
     id="polyline21" />
  <polyline
     clip-path="url(#clip442)"
     style="fill:none;stroke:#000000;stroke-width:2;stroke-linecap:butt;stroke-linejoin:round;stroke-opacity:0.1"
     points="   742.03,1486.45 742.03,47.2441    "
     id="polyline23" />
  <polyline
     clip-path="url(#clip442)"
     style="fill:none;stroke:#000000;stroke-width:2;stroke-linecap:butt;stroke-linejoin:round;stroke-opacity:0.1"
     points="   1010.48,1486.45 1010.48,47.2441    "
     id="polyline25" />
  <polyline
     clip-path="url(#clip442)"
     style="fill:none;stroke:#000000;stroke-width:2;stroke-linecap:butt;stroke-linejoin:round;stroke-opacity:0.1"
     points="   1547.39,1486.45 1547.39,47.2441    "
     id="polyline27" />
  <polyline
     clip-path="url(#clip442)"
     style="fill:none;stroke:#000000;stroke-width:2;stroke-linecap:butt;stroke-linejoin:round;stroke-opacity:0.1"
     points="   1815.85,1486.45 1815.85,47.2441    "
     id="polyline29" />
  <polyline
     clip-path="url(#clip442)"
     style="fill:none;stroke:#000000;stroke-width:2;stroke-linecap:butt;stroke-linejoin:round;stroke-opacity:0.1"
     points="   2084.3,1486.45 2084.3,47.2441    "
     id="polyline31" />
  <polyline
     clip-path="url(#clip440)"
     style="fill:none;stroke:#000000;stroke-width:4;stroke-linecap:butt;stroke-linejoin:round;stroke-opacity:1"
     points="   205.121,1486.45 2352.76,1486.45    "
     id="polyline33" />
  <polyline
     clip-path="url(#clip440)"
     style="fill:none;stroke:#000000;stroke-width:4;stroke-linecap:butt;stroke-linejoin:round;stroke-opacity:1"
     points="   473.575,1486.45 473.575,1467.55    "
     id="polyline35" />
  <polyline
     clip-path="url(#clip440)"
     style="fill:none;stroke:#000000;stroke-width:4;stroke-linecap:butt;stroke-linejoin:round;stroke-opacity:1"
     points="   742.03,1486.45 742.03,1467.55    "
     id="polyline37" />
  <polyline
     clip-path="url(#clip440)"
     style="fill:none;stroke:#000000;stroke-width:4;stroke-linecap:butt;stroke-linejoin:round;stroke-opacity:1"
     points="   1010.48,1486.45 1010.48,1467.55    "
     id="polyline39" />
  <polyline
     clip-path="url(#clip440)"
     style="fill:none;stroke:#000000;stroke-width:4;stroke-linecap:butt;stroke-linejoin:round;stroke-opacity:1"
     points="   1547.39,1486.45 1547.39,1467.55    "
     id="polyline41" />
  <polyline
     clip-path="url(#clip440)"
     style="fill:none;stroke:#000000;stroke-width:4;stroke-linecap:butt;stroke-linejoin:round;stroke-opacity:1"
     points="   1815.85,1486.45 1815.85,1467.55    "
     id="polyline43" />
  <polyline
     clip-path="url(#clip440)"
     style="fill:none;stroke:#000000;stroke-width:4;stroke-linecap:butt;stroke-linejoin:round;stroke-opacity:1"
     points="   2084.3,1486.45 2084.3,1467.55    "
     id="polyline45" />
  <path
     clip-path="url(#clip440)"
     d="m 443.934,1514.29 h 4.676 v 14.6 l 15.509,-14.6 h 6.019 l -17.153,16.11 18.38,18.45 h -6.158 L 448.61,1532.2 v 16.65 h -4.676 z"
     fill="#000000"
     fill-rule="evenodd"
     fill-opacity="1"
     id="path47" />
  <path
     clip-path="url(#clip440)"
     d="m 498.587,1543.92 v -9.29 h -7.639 v -3.84 h 12.268 v 14.84 q -2.708,1.92 -5.972,2.92 -3.264,0.97 -6.967,0.97 -8.102,0 -12.685,-4.72 -4.561,-4.75 -4.561,-13.2 0,-8.47 4.561,-13.19 4.583,-4.75 12.685,-4.75 3.379,0 6.412,0.84 3.055,0.83 5.625,2.45 v 4.98 q -2.593,-2.2 -5.51,-3.31 -2.916,-1.11 -6.134,-1.11 -6.342,0 -9.537,3.54 -3.171,3.54 -3.171,10.55 0,6.99 3.171,10.53 3.195,3.55 9.537,3.55 2.477,0 4.421,-0.42 1.945,-0.44 3.496,-1.34 z"
     fill="#000000"
     fill-rule="evenodd"
     fill-opacity="1"
     id="path49" />
  <path
     clip-path="url(#clip440)"
     d="m 979.037,1514.29 h 6.297 l 15.326,28.91 v -28.91 h 4.53 v 34.56 h -6.292 l -15.324,-28.91 v 28.91 h -4.537 z"
     fill="#000000"
     fill-rule="evenodd"
     fill-opacity="1"
     id="path61" />
  <path
     clip-path="url(#clip440)"
     d="m 1014.5,1514.29 h 4.68 v 14.6 l 15.51,-14.6 h 6.01 l -17.15,16.11 18.38,18.45 h -6.16 l -16.59,-16.65 v 16.65 h -4.68 z"
     fill="#000000"
     fill-rule="evenodd"
     fill-opacity="1"
     id="path63" />
  <path
     clip-path="url(#clip440)"
     d="m 1517.75,1514.29 h 4.68 v 14.6 l 15.51,-14.6 h 6.02 l -17.16,16.11 18.38,18.45 h -6.16 l -16.59,-16.65 v 16.65 h -4.68 z"
     fill="#000000"
     fill-rule="evenodd"
     fill-opacity="1"
     id="path65" />
  <path
     clip-path="url(#clip440)"
     d="m 1572.4,1543.92 v -9.29 h -7.63 v -3.84 h 12.26 v 14.84 q -2.7,1.92 -5.97,2.92 -3.26,0.97 -6.97,0.97 -8.1,0 -12.68,-4.72 -4.56,-4.75 -4.56,-13.2 0,-8.47 4.56,-13.19 4.58,-4.75 12.68,-4.75 3.38,0 6.42,0.84 3.05,0.83 5.62,2.45 v 4.98 q -2.59,-2.2 -5.51,-3.31 -2.91,-1.11 -6.13,-1.11 -6.34,0 -9.54,3.54 -3.17,3.54 -3.17,10.55 0,6.99 3.17,10.53 3.2,3.55 9.54,3.55 2.47,0 4.42,-0.42 1.94,-0.44 3.49,-1.34 z"
     fill="#000000"
     fill-rule="evenodd"
     fill-opacity="1"
     id="path67" />
  <path
     clip-path="url(#clip440)"
     d="m 2052.47,1514.29 h 6.3 l 15.32,28.91 v -28.91 h 4.54 v 34.56 h -6.3 l -15.32,-28.91 v 28.91 h -4.54 z"
     fill="#000000"
     fill-rule="evenodd"
     fill-opacity="1"
     id="path87" />
  <path
     clip-path="url(#clip440)"
     d="m 2111.5,1543.92 v -9.29 h -7.64 v -3.84 h 12.27 v 14.84 q -2.71,1.92 -5.97,2.92 -3.27,0.97 -6.97,0.97 -8.1,0 -12.68,-4.72 -4.56,-4.75 -4.56,-13.2 0,-8.47 4.56,-13.19 4.58,-4.75 12.68,-4.75 3.38,0 6.41,0.84 3.06,0.83 5.63,2.45 v 4.98 q -2.6,-2.2 -5.51,-3.31 -2.92,-1.11 -6.14,-1.11 -6.34,0 -9.53,3.54 -3.17,3.54 -3.17,10.55 0,6.99 3.17,10.53 3.19,3.55 9.53,3.55 2.48,0 4.43,-0.42 1.94,-0.44 3.49,-1.34 z"
     fill="#000000"
     fill-rule="evenodd"
     fill-opacity="1"
     id="path89" />
  <polyline
     clip-path="url(#clip442)"
     style="fill:none;stroke:#000000;stroke-width:2;stroke-linecap:butt;stroke-linejoin:round;stroke-opacity:0.1"
     points="   205.121,1467.51 2352.76,1467.51    "
     id="polyline91" />
  <polyline
     clip-path="url(#clip442)"
     style="fill:none;stroke:#000000;stroke-width:2;stroke-linecap:butt;stroke-linejoin:round;stroke-opacity:0.1"
     points="   205.121,1151.9 2352.76,1151.9    "
     id="polyline93" />
  <polyline
     clip-path="url(#clip442)"
     style="fill:none;stroke:#000000;stroke-width:2;stroke-linecap:butt;stroke-linejoin:round;stroke-opacity:0.1"
     points="   205.121,836.281 2352.76,836.281    "
     id="polyline95" />
  <polyline
     clip-path="url(#clip442)"
     style="fill:none;stroke:#000000;stroke-width:2;stroke-linecap:butt;stroke-linejoin:round;stroke-opacity:0.1"
     points="   205.121,520.666 2352.76,520.666    "
     id="polyline97" />
  <polyline
     clip-path="url(#clip442)"
     style="fill:none;stroke:#000000;stroke-width:2;stroke-linecap:butt;stroke-linejoin:round;stroke-opacity:0.1"
     points="   205.121,205.052 2352.76,205.052    "
     id="polyline99" />
  <polyline
     clip-path="url(#clip440)"
     style="fill:none;stroke:#000000;stroke-width:4;stroke-linecap:butt;stroke-linejoin:round;stroke-opacity:1"
     points="   205.121,1486.45 205.121,47.2441    "
     id="polyline101" />
  <polyline
     clip-path="url(#clip440)"
     style="fill:none;stroke:#000000;stroke-width:4;stroke-linecap:butt;stroke-linejoin:round;stroke-opacity:1"
     points="   205.121,1467.51 224.019,1467.51    "
     id="polyline103" />
  <polyline
     clip-path="url(#clip440)"
     style="fill:none;stroke:#000000;stroke-width:4;stroke-linecap:butt;stroke-linejoin:round;stroke-opacity:1"
     points="   205.121,1151.9 224.019,1151.9    "
     id="polyline105" />
  <polyline
     clip-path="url(#clip440)"
     style="fill:none;stroke:#000000;stroke-width:4;stroke-linecap:butt;stroke-linejoin:round;stroke-opacity:1"
     points="   205.121,836.281 224.019,836.281    "
     id="polyline107" />
  <polyline
     clip-path="url(#clip440)"
     style="fill:none;stroke:#000000;stroke-width:4;stroke-linecap:butt;stroke-linejoin:round;stroke-opacity:1"
     points="   205.121,520.666 224.019,520.666    "
     id="polyline109" />
  <polyline
     clip-path="url(#clip440)"
     style="fill:none;stroke:#000000;stroke-width:4;stroke-linecap:butt;stroke-linejoin:round;stroke-opacity:1"
     points="   205.121,205.052 224.019,205.052    "
     id="polyline111" />
  <path
     clip-path="url(#clip440)"
     d="m 157.177,1453.31 q -3.611,0 -5.44,3.56 -1.806,3.55 -1.806,10.68 0,7.1 1.806,10.67 1.829,3.54 5.44,3.54 3.634,0 5.439,-3.54 1.829,-3.57 1.829,-10.67 0,-7.13 -1.829,-10.68 -1.805,-3.56 -5.439,-3.56 m 0,-3.7 q 5.81,0 8.865,4.6 3.079,4.59 3.079,13.34 0,8.72 -3.079,13.33 -3.055,4.58 -8.865,4.58 -5.811,0 -8.889,-4.58 -3.056,-4.61 -3.056,-13.33 0,-8.75 3.056,-13.34 3.078,-4.6 8.889,-4.6 z"
     fill="#000000"
     fill-rule="evenodd"
     fill-opacity="1"
     id="path113" />
  <path
     clip-path="url(#clip440)"
     d="m 121.043,1165.24 h 16.319 v 3.94 h -21.944 v -3.94 q 2.662,-2.75 7.245,-7.38 4.606,-4.66 5.787,-6 2.245,-2.52 3.125,-4.26 0.903,-1.76 0.903,-3.45 0,-2.75 -1.945,-4.49 -1.921,-1.73 -5.023,-1.73 -2.199,0 -4.653,0.76 -2.43,0.76 -5.208,2.31 v -4.72 q 2.824,-1.13 5.278,-1.71 2.453,-0.58 4.491,-0.58 5.37,0 8.564,2.69 3.195,2.68 3.195,7.17 0,2.13 -0.81,4.05 -0.788,1.9 -2.894,4.49 -0.579,0.68 -3.681,3.89 -3.101,3.2 -8.749,8.96 z"
     fill="#000000"
     fill-rule="evenodd"
     fill-opacity="1"
     id="path115" />
  <path
     clip-path="url(#clip440)"
     d="m 157.177,1137.69 q -3.611,0 -5.44,3.57 -1.806,3.54 -1.806,10.67 0,7.11 1.806,10.67 1.829,3.54 5.44,3.54 3.634,0 5.439,-3.54 1.829,-3.56 1.829,-10.67 0,-7.13 -1.829,-10.67 -1.805,-3.57 -5.439,-3.57 m 0,-3.7 q 5.81,0 8.865,4.61 3.079,4.58 3.079,13.33 0,8.73 -3.079,13.33 -3.055,4.59 -8.865,4.59 -5.811,0 -8.889,-4.59 -3.056,-4.6 -3.056,-13.33 0,-8.75 3.056,-13.33 3.078,-4.61 8.889,-4.61 z"
     fill="#000000"
     fill-rule="evenodd"
     fill-opacity="1"
     id="path117" />
  <path
     clip-path="url(#clip440)"
     d="m 129.862,823.075 -11.806,18.449 h 11.806 v -18.449 m -1.227,-4.074 h 5.88 v 22.523 h 4.93 v 3.889 h -4.93 v 8.148 h -4.653 v -8.148 H 114.26 v -4.514 z"
     fill="#000000"
     fill-rule="evenodd"
     fill-opacity="1"
     id="path119" />
  <path
     clip-path="url(#clip440)"
     d="m 157.177,822.08 q -3.611,0 -5.44,3.565 -1.806,3.541 -1.806,10.671 0,7.106 1.806,10.671 1.829,3.542 5.44,3.542 3.634,0 5.439,-3.542 1.829,-3.565 1.829,-10.671 0,-7.13 -1.829,-10.671 -1.805,-3.565 -5.439,-3.565 m 0,-3.704 q 5.81,0 8.865,4.607 3.079,4.583 3.079,13.333 0,8.727 -3.079,13.333 -3.055,4.584 -8.865,4.584 -5.811,0 -8.889,-4.584 -3.056,-4.606 -3.056,-13.333 0,-8.75 3.056,-13.333 3.078,-4.607 8.889,-4.607 z"
     fill="#000000"
     fill-rule="evenodd"
     fill-opacity="1"
     id="path121" />
  <path
     clip-path="url(#clip440)"
     d="m 127.593,518.803 q -3.148,0 -5,2.153 -1.828,2.153 -1.828,5.902 0,3.727 1.828,5.903 1.852,2.153 5,2.153 3.149,0 4.977,-2.153 1.852,-2.176 1.852,-5.903 0,-3.749 -1.852,-5.902 -1.828,-2.153 -4.977,-2.153 m 9.283,-14.653 v 4.26 q -1.759,-0.834 -3.565,-1.274 -1.782,-0.439 -3.542,-0.439 -4.629,0 -7.083,3.125 -2.431,3.125 -2.778,9.444 1.366,-2.014 3.426,-3.079 2.06,-1.088 4.537,-1.088 5.209,0 8.218,3.172 3.032,3.148 3.032,8.587 0,5.325 -3.148,8.542 -3.148,3.218 -8.38,3.218 -5.995,0 -9.166,-4.584 -3.171,-4.606 -3.171,-13.333 0,-8.194 3.888,-13.055 3.889,-4.885 10.44,-4.885 1.759,0 3.542,0.348 1.805,0.347 3.75,1.041 z"
     fill="#000000"
     fill-rule="evenodd"
     fill-opacity="1"
     id="path123" />
  <path
     clip-path="url(#clip440)"
     d="m 157.177,506.465 q -3.611,0 -5.44,3.565 -1.806,3.542 -1.806,10.671 0,7.107 1.806,10.671 1.829,3.542 5.44,3.542 3.634,0 5.439,-3.542 1.829,-3.564 1.829,-10.671 0,-7.129 -1.829,-10.671 -1.805,-3.565 -5.439,-3.565 m 0,-3.704 q 5.81,0 8.865,4.607 3.079,4.583 3.079,13.333 0,8.727 -3.079,13.333 -3.055,4.584 -8.865,4.584 -5.811,0 -8.889,-4.584 -3.056,-4.606 -3.056,-13.333 0,-8.75 3.056,-13.333 3.078,-4.607 8.889,-4.607 z"
     fill="#000000"
     fill-rule="evenodd"
     fill-opacity="1"
     id="path125" />
  <path
     clip-path="url(#clip440)"
     d="m 127.015,205.92 q -3.334,0 -5.255,1.782 -1.898,1.782 -1.898,4.907 0,3.125 1.898,4.908 1.921,1.782 5.255,1.782 3.333,0 5.254,-1.782 1.922,-1.806 1.922,-4.908 0,-3.125 -1.922,-4.907 -1.898,-1.782 -5.254,-1.782 m -4.676,-1.991 q -3.009,-0.741 -4.699,-2.801 -1.667,-2.06 -1.667,-5.023 0,-4.144 2.94,-6.551 2.963,-2.407 8.102,-2.407 5.162,0 8.102,2.407 2.939,2.407 2.939,6.551 0,2.963 -1.689,5.023 -1.667,2.06 -4.653,2.801 3.379,0.787 5.254,3.079 1.899,2.291 1.899,5.601 0,5.023 -3.079,7.709 -3.056,2.685 -8.773,2.685 -5.718,0 -8.797,-2.685 -3.055,-2.686 -3.055,-7.709 0,-3.31 1.898,-5.601 1.898,-2.292 5.278,-3.079 m -1.713,-7.384 q 0,2.685 1.667,4.189 1.689,1.505 4.722,1.505 3.009,0 4.699,-1.505 1.713,-1.504 1.713,-4.189 0,-2.686 -1.713,-4.19 -1.69,-1.505 -4.699,-1.505 -3.033,0 -4.722,1.505 -1.667,1.504 -1.667,4.19 z"
     fill="#000000"
     fill-rule="evenodd"
     fill-opacity="1"
     id="path127" />
  <path
     clip-path="url(#clip440)"
     d="m 157.177,190.85 q -3.611,0 -5.44,3.565 -1.806,3.542 -1.806,10.671 0,7.107 1.806,10.671 1.829,3.542 5.44,3.542 3.634,0 5.439,-3.542 1.829,-3.564 1.829,-10.671 0,-7.129 -1.829,-10.671 -1.805,-3.565 -5.439,-3.565 m 0,-3.703 q 5.81,0 8.865,4.606 3.079,4.583 3.079,13.333 0,8.727 -3.079,13.334 -3.055,4.583 -8.865,4.583 -5.811,0 -8.889,-4.583 -3.056,-4.607 -3.056,-13.334 0,-8.75 3.056,-13.333 3.078,-4.606 8.889,-4.606 z"
     fill="#000000"
     fill-rule="evenodd"
     fill-opacity="1"
     id="path129" />
  <path
     clip-path="url(#clip440)"
     d="m 41.7242,930.508 q 0.7002,-2.069 2.9919,-4.01 2.2916,-1.973 6.302,-3.947 l 12.9861,-6.525 v 6.907 l -12.1904,6.079 q -4.7743,2.356 -6.3338,4.584 -1.5596,2.196 -1.5596,6.015 v 7.003 h 20.0838 v 6.429 h -47.52 v -14.514 q 0,-8.148 3.4056,-12.158 3.4057,-4.011 10.2806,-4.011 4.4878,0 7.4479,2.101 2.9601,2.069 4.1059,6.047 m -19.9565,16.106 h 16.8691 v -8.085 q 0,-4.647 -2.1325,-7.002 -2.1643,-2.387 -6.3339,-2.387 -4.1695,0 -6.2702,2.387 -2.1325,2.355 -2.1325,7.002 z"
     fill="#000000"
     fill-rule="evenodd"
     fill-opacity="1"
     id="path131" />
  <path
     clip-path="url(#clip440)"
     d="m 44.7161,880.442 h 2.8645 v 26.927 q 6.0475,-0.382 9.2303,-3.628 3.151,-3.279 3.151,-9.103 0,-3.374 -0.8275,-6.525 -0.8275,-3.183 -2.4826,-6.302 h 5.5381 q 1.3368,3.151 2.0371,6.461 0.7002,3.31 0.7002,6.716 0,8.53 -4.9653,13.527 -4.9652,4.965 -13.4316,4.965 -8.7529,0 -13.8772,-4.711 -5.1563,-4.742 -5.1563,-12.763 0,-7.193 4.647,-11.363 4.6151,-4.201 12.5723,-4.201 m -1.7188,5.856 q -4.8061,0.064 -7.6707,2.706 -2.8645,2.61 -2.8645,6.939 0,4.901 2.7691,7.861 2.769,2.928 7.798,3.374 z"
     fill="#000000"
     fill-rule="evenodd"
     fill-opacity="1"
     id="path133" />
  <path
     clip-path="url(#clip440)"
     d="m 29.7248,845.176 h 5.4745 q -1.3686,2.483 -2.037,4.997 -0.7002,2.483 -0.7002,5.029 0,5.697 3.6284,8.848 3.5967,3.151 10.1215,3.151 6.5249,0 10.1533,-3.151 3.5966,-3.151 3.5966,-8.848 0,-2.546 -0.6684,-5.029 -0.7002,-2.514 -2.0688,-4.997 h 5.4108 q 1.1459,2.451 1.7188,5.093 0.5729,2.61 0.5729,5.57 0,8.052 -5.0608,12.795 -5.0607,4.742 -13.6544,4.742 -8.721,0 -13.7181,-4.774 -4.9971,-4.806 -4.9971,-13.145 0,-2.706 0.5729,-5.284 0.5411,-2.578 1.6551,-4.997 z"
     fill="#000000"
     fill-rule="evenodd"
     fill-opacity="1"
     id="path135" />
  <path
     clip-path="url(#clip440)"
     d="m 33.8307,814.334 q -0.5729,0.987 -0.8275,2.164 -0.2865,1.146 -0.2865,2.547 0,4.965 3.2465,7.639 3.2147,2.641 9.2621,2.641 h 18.7789 v 5.889 h -35.648 v -5.889 h 5.5382 q -3.2465,-1.846 -4.8061,-4.806 -1.5915,-2.96 -1.5915,-7.193 0,-0.605 0.0955,-1.337 0.0637,-0.732 0.2228,-1.623 z"
     fill="#000000"
     fill-rule="evenodd"
     fill-opacity="1"
     id="path137" />
  <path
     clip-path="url(#clip440)"
     d="M 49.9359,808.796 H 28.3562 v -5.856 h 21.3569 q 5.0608,0 7.6071,-1.974 2.5144,-1.973 2.5144,-5.92 0,-4.742 -3.0237,-7.48 -3.0237,-2.769 -8.2436,-2.769 H 28.3562 v -5.856 h 35.648 v 5.856 h -5.4746 q 3.2466,2.133 4.838,4.966 1.5596,2.8 1.5596,6.524 0,6.143 -3.8194,9.326 -3.8195,3.183 -11.1719,3.183 M 27.4968,794.059 Z"
     fill="#000000"
     fill-rule="evenodd"
     fill-opacity="1"
     id="path139" />
  <path
     clip-path="url(#clip440)"
     d="m 28.3562,766.878 v -5.857 h 35.648 v 5.857 h -35.648 m -13.8772,0 v -5.857 h 7.416 v 5.857 z"
     fill="#000000"
     fill-rule="evenodd"
     fill-opacity="1"
     id="path141" />
  <path
     clip-path="url(#clip440)"
     d="m 18.2347,742.975 h 10.1215 v -12.063 h 4.5515 v 12.063 h 19.3517 q 4.3605,0 5.6019,-1.178 1.2413,-1.21 1.2413,-4.87 v -6.015 h 4.9016 v 6.015 q 0,6.78 -2.5145,9.358 -2.5463,2.578 -9.2303,2.578 H 32.9077 v 4.297 h -4.5515 v -4.297 H 18.2347 Z"
     fill="#000000"
     fill-rule="evenodd"
     fill-opacity="1"
     id="path143" />
  <path
     clip-path="url(#clip440)"
     d="m 29.4065,700.483 h 5.5382 q -1.2731,2.483 -1.9097,5.157 -0.6366,2.673 -0.6366,5.538 0,4.36 1.3368,6.557 1.3368,2.164 4.0104,2.164 2.037,0 3.2147,-1.56 1.1458,-1.559 2.1962,-6.27 l 0.4456,-2.005 q 1.3368,-6.239 3.7876,-8.848 2.4189,-2.642 6.7794,-2.642 4.9653,0 7.8617,3.947 2.8964,3.914 2.8964,10.789 0,2.865 -0.5729,5.984 -0.5411,3.088 -1.6551,6.525 h -6.0474 q 1.6869,-3.247 2.5462,-6.398 0.8276,-3.151 0.8276,-6.238 0,-4.138 -1.4005,-6.366 -1.4322,-2.228 -4.0104,-2.228 -2.3871,0 -3.6602,1.624 -1.2732,1.591 -2.4508,7.034 l -0.4775,2.037 q -1.1458,5.442 -3.5011,7.861 -2.3871,2.419 -6.5249,2.419 -5.0289,0 -7.7661,-3.564 -2.7373,-3.565 -2.7373,-10.122 0,-3.246 0.4775,-6.111 0.4774,-2.865 1.4322,-5.284 z"
     fill="#000000"
     fill-rule="evenodd"
     fill-opacity="1"
     id="path145" />
  <path
     clip-path="url(#clip440)"
     d="m 14.5426,654.459 q 7.3206,4.265 14.482,6.334 7.1614,2.069 14.5138,2.069 7.3524,0 14.5775,-2.069 7.1932,-2.1 14.482,-6.334 v 5.093 q -7.4797,4.774 -14.7048,7.161 -7.2251,2.356 -14.3547,2.356 -7.0978,0 -14.291,-2.356 -7.1932,-2.355 -14.7048,-7.161 z"
     fill="#000000"
     fill-rule="evenodd"
     fill-opacity="1"
     id="path147" />
  <path
     clip-path="url(#clip440)"
     d="m 16.4842,642.842 v -8.657 L 56.238,613.114 H 16.4842 v -6.238 h 47.52 v 8.657 l -39.7539,21.071 h 39.7539 v 6.238 z"
     fill="#000000"
     fill-rule="evenodd"
     fill-opacity="1"
     id="path149" />
  <path
     clip-path="url(#clip440)"
     d="m 14.5426,595.258 v -5.092 q 7.5116,-4.774 14.7048,-7.13 7.1932,-2.387 14.291,-2.387 7.1296,0 14.3547,2.387 7.2251,2.356 14.7048,7.13 v 5.092 q -7.2888,-4.233 -14.482,-6.302 -7.2251,-2.1 -14.5775,-2.1 -7.3524,0 -14.5138,2.1 -7.1614,2.069 -14.482,6.302 z"
     fill="#000000"
     fill-rule="evenodd"
     fill-opacity="1"
     id="path151" />
  <polyline
     clip-path="url(#clip442)"
     style="fill:none;stroke:#000000;stroke-width:6;stroke-linecap:butt;stroke-linejoin:round;stroke-opacity:1"
     points="   473.575,1356.02 473.575,223.436    "
     id="polyline153" />
  <polyline
     clip-path="url(#clip442)"
     style="fill:none;stroke:#000000;stroke-width:6;stroke-linecap:butt;stroke-linejoin:round;stroke-opacity:1"
     points="   1010.48,1367.35 1010.48,185.515    "
     id="polyline155" />
  <polyline
     clip-path="url(#clip442)"
     style="fill:none;stroke:#000000;stroke-width:6;stroke-linecap:butt;stroke-linejoin:round;stroke-opacity:1"
     points="   1547.39,1434.81 1547.39,867.716    "
     id="polyline157" />
  <polyline
     clip-path="url(#clip442)"
     style="fill:none;stroke:#000000;stroke-width:6;stroke-linecap:butt;stroke-linejoin:round;stroke-opacity:1"
     points="   2084.3,1446.43 2084.3,1015.68    "
     id="polyline159" />
  <polyline
     clip-path="url(#clip442)"
     style="fill:none;stroke:#808080;stroke-width:16;stroke-linecap:butt;stroke-linejoin:round;stroke-opacity:1"
     points="   473.575,1291.21 473.575,802.148    "
     id="polyline161" />
  <polyline
     clip-path="url(#clip442)"
     style="fill:none;stroke:#808080;stroke-width:16;stroke-linecap:butt;stroke-linejoin:round;stroke-opacity:1"
     points="   1010.48,1302.82 1010.48,810.811    "
     id="polyline163" />
  <polyline
     clip-path="url(#clip442)"
     style="fill:none;stroke:#808080;stroke-width:16;stroke-linecap:butt;stroke-linejoin:round;stroke-opacity:1"
     points="   1547.39,1394.18 1547.39,1169.44    "
     id="polyline165" />
  <polyline
     clip-path="url(#clip442)"
     style="fill:none;stroke:#808080;stroke-width:16;stroke-linecap:butt;stroke-linejoin:round;stroke-opacity:1"
     points="   2084.3,1413.11 2084.3,1248.05    "
     id="polyline167" />
  <circle
     clip-path="url(#clip442)"
     cx="473.57501"
     cy="1006.74"
     r="28.799999"
     fill="#87cefa"
     fill-rule="evenodd"
     fill-opacity="1"
     stroke="#000000"
     stroke-opacity="1"
     stroke-width="3.2"
     id="circle169" />
  <circle
     clip-path="url(#clip442)"
     cx="1010.48"
     cy="993.836"
     r="28.799999"
     fill="#ff0000"
     fill-rule="evenodd"
     fill-opacity="1"
     stroke="#000000"
     stroke-opacity="1"
     stroke-width="3.2"
     id="circle171" />
  <circle
     clip-path="url(#clip442)"
     cx="1547.39"
     cy="1257.22"
     r="28.799999"
     fill="#87cefa"
     fill-rule="evenodd"
     fill-opacity="1"
     stroke="#000000"
     stroke-opacity="1"
     stroke-width="3.2"
     id="circle173" />
  <circle
     clip-path="url(#clip442)"
     cx="2084.3"
     cy="1312.35"
     r="28.799999"
     fill="#ff0000"
     fill-rule="evenodd"
     fill-opacity="1"
     stroke="#000000"
     stroke-opacity="1"
     stroke-width="3.2"
     id="circle175" />
  <circle
     clip-path="url(#clip442)"
     cx="412.88101"
     cy="520.66602"
     r="7.1999998"
     fill="#808080"
     fill-rule="evenodd"
     fill-opacity="1"
     stroke="#000000"
     stroke-opacity="1"
     stroke-width="3.2"
     id="circle177" />
  <circle
     clip-path="url(#clip442)"
     cx="1040.5699"
     cy="978.30798"
     r="7.1999998"
     fill="#808080"
     fill-rule="evenodd"
     fill-opacity="1"
     stroke="#000000"
     stroke-opacity="1"
     stroke-width="3.2"
     id="circle179" />
  <circle
     clip-path="url(#clip442)"
     cx="451.345"
     cy="362.85901"
     r="7.1999998"
     fill="#808080"
     fill-rule="evenodd"
     fill-opacity="1"
     stroke="#000000"
     stroke-opacity="1"
     stroke-width="3.2"
     id="circle181" />
  <circle
     clip-path="url(#clip442)"
     cx="488.10501"
     cy="710.03497"
     r="7.1999998"
     fill="#808080"
     fill-rule="evenodd"
     fill-opacity="1"
     stroke="#000000"
     stroke-opacity="1"
     stroke-width="3.2"
     id="circle183" />
  <circle
     clip-path="url(#clip442)"
     cx="1128.3"
     cy="268.17401"
     r="7.1999998"
     fill="#808080"
     fill-rule="evenodd"
     fill-opacity="1"
     stroke="#000000"
     stroke-opacity="1"
     stroke-width="3.2"
     id="circle185" />
  <circle
     clip-path="url(#clip442)"
     cx="940.66498"
     cy="1467.51"
     r="7.1999998"
     fill="#808080"
     fill-rule="evenodd"
     fill-opacity="1"
     stroke="#000000"
     stroke-opacity="1"
     stroke-width="3.2"
     id="circle187" />
  <circle
     clip-path="url(#clip442)"
     cx="376.745"
     cy="1467.51"
     r="7.1999998"
     fill="#808080"
     fill-rule="evenodd"
     fill-opacity="1"
     stroke="#000000"
     stroke-opacity="1"
     stroke-width="3.2"
     id="circle189" />
  <circle
     clip-path="url(#clip442)"
     cx="1512.23"
     cy="1262.36"
     r="7.1999998"
     fill="#808080"
     fill-rule="evenodd"
     fill-opacity="1"
     stroke="#000000"
     stroke-opacity="1"
     stroke-width="3.2"
     id="circle191" />
  <circle
     clip-path="url(#clip442)"
     cx="1492.35"
     cy="1057.21"
     r="7.1999998"
     fill="#808080"
     fill-rule="evenodd"
     fill-opacity="1"
     stroke="#000000"
     stroke-opacity="1"
     stroke-width="3.2"
     id="circle193" />
  <circle
     clip-path="url(#clip442)"
     cx="1643.08"
     cy="836.28101"
     r="7.1999998"
     fill="#808080"
     fill-rule="evenodd"
     fill-opacity="1"
     stroke="#000000"
     stroke-opacity="1"
     stroke-width="3.2"
     id="circle195" />
  <circle
     clip-path="url(#clip442)"
     cx="2126.1001"
     cy="1388.61"
     r="7.1999998"
     fill="#808080"
     fill-rule="evenodd"
     fill-opacity="1"
     stroke="#000000"
     stroke-opacity="1"
     stroke-width="3.2"
     id="circle197" />
  <circle
     clip-path="url(#clip442)"
     cx="2059.3301"
     cy="1357.05"
     r="7.1999998"
     fill="#808080"
     fill-rule="evenodd"
     fill-opacity="1"
     stroke="#000000"
     stroke-opacity="1"
     stroke-width="3.2"
     id="circle199" />
  <circle
     clip-path="url(#clip442)"
     cx="2115.4099"
     cy="583.789"
     r="7.1999998"
     fill="#808080"
     fill-rule="evenodd"
     fill-opacity="1"
     stroke="#000000"
     stroke-opacity="1"
     stroke-width="3.2"
     id="circle201" />
  <circle
     clip-path="url(#clip442)"
     cx="1635.36"
     cy="1467.51"
     r="7.1999998"
     fill="#808080"
     fill-rule="evenodd"
     fill-opacity="1"
     stroke="#000000"
     stroke-opacity="1"
     stroke-width="3.2"
     id="circle203" />
  <circle
     clip-path="url(#clip442)"
     cx="2071.8701"
     cy="1467.51"
     r="7.1999998"
     fill="#808080"
     fill-rule="evenodd"
     fill-opacity="1"
     stroke="#000000"
     stroke-opacity="1"
     stroke-width="3.2"
     id="circle205" />
  <polyline
     clip-path="url(#clip442)"
     style="fill:none;stroke:#000000;stroke-width:8;stroke-linecap:butt;stroke-linejoin:round;stroke-opacity:1"
     points="   1278.94,1467.51 1278.94,47.2441    "
     id="polyline207" />
  <text
     xml:space="preserve"
     style="font-style:normal;font-weight:normal;font-size:58.6667px;line-height:1.25;font-family:sans-serif;letter-spacing:0px;word-spacing:0px;fill:#000000;fill-opacity:1;stroke:none;stroke-width:4"
     x="646.74713"
     y="46.72187"
     id="text3134"><tspan
       sodipodi:role="line"
       id="tspan3132"
       style="font-style:normal;font-variant:normal;font-weight:bold;font-stretch:normal;font-size:58.6667px;font-family:arial;-inkscape-font-specification:'arial Bold';stroke-width:4"
       x="646.74713"
       y="46.72187">Guppy</tspan></text>
  <text
     xml:space="preserve"
     style="font-style:normal;font-weight:normal;font-size:58.6667px;line-height:1.25;font-family:sans-serif;letter-spacing:0px;word-spacing:0px;fill:#000000;fill-opacity:1;stroke:none;stroke-width:4"
     x="1723.3976"
     y="47.83316"
     id="text3134-3"><tspan
       sodipodi:role="line"
       id="tspan3132-6"
       style="font-style:normal;font-variant:normal;font-weight:bold;font-stretch:normal;font-size:58.6667px;font-family:arial;-inkscape-font-specification:'arial Bold';stroke-width:4"
       x="1723.3976"
       y="47.83316">Killifish</tspan></text>
</svg>
